<svg width="100" height="100" viewBox="0 0 100 100" fill="none" xmlns="http://www.w3.org/2000/svg">
<path fill-rule="evenodd" clip-rule="evenodd" d="M8 12C8 7.58173 11.5817 4 16 4H84.5229C88.9411 4 92.5228 7.58172 92.5228 12V73.0125C92.5228 77.4308 88.9411 81.0125 84.5228 81.0125H74.1826L74.2217 91.6528C74.2344 95.1307 70.4482 97.2522 67.9144 95.1868L50.5262 81.0125H16C11.5817 81.0125 8 77.4308 8 73.0125V12ZM42.8165 39.9288C42.5533 40.3756 42.1754 40.7437 41.722 40.9952L28.2588 48.4643C27.8365 48.6981 27.3625 48.823 26.8798 48.8278C26.3971 48.8325 25.9208 48.717 25.4939 48.4915C25.067 48.2661 24.703 47.9378 24.4348 47.5365C24.1666 47.1351 24.0026 46.6732 23.9576 46.1926C23.8825 45.3836 23.8438 44.5626 23.8438 43.7465C23.8519 38.7404 25.2929 33.8412 27.9967 29.628C30.7005 25.4149 34.5539 22.0638 39.1016 19.9709C39.5443 19.768 40.031 19.6796 40.5169 19.7138C41.0028 19.7481 41.4723 19.9039 41.8822 20.167C42.2921 20.4301 42.6293 20.7919 42.8629 21.2194C43.0964 21.6468 43.2188 22.1261 43.2188 22.6132V38.4547C43.2186 38.9731 43.0797 39.4821 42.8165 39.9288ZM37.4062 36.7376V27.7766C33.2949 31.0292 30.5906 35.7373 29.8524 40.9274L37.4062 36.7376ZM47.945 18.4414C48.49 17.8964 49.2292 17.5902 50 17.5902C54.5826 17.5908 59.0845 18.7954 63.0551 21.0832C67.0257 23.3711 70.3255 26.662 72.6242 30.6263C74.9228 34.5907 76.1396 39.0894 76.1526 43.6719C76.1657 48.2545 74.9746 52.76 72.6986 56.7374C70.4226 60.7148 67.1415 64.0244 63.1841 66.3349C59.2266 68.6453 54.7315 69.8755 50.1491 69.9023C45.5666 69.929 41.0575 68.7513 37.0733 66.4872C33.0892 64.2231 29.7698 60.9519 27.4475 57.0014C27.2532 56.6715 27.126 56.3065 27.0731 55.9273C27.0203 55.5481 27.0429 55.1622 27.1397 54.7917C27.2365 54.4213 27.4055 54.0737 27.637 53.7687C27.8686 53.4638 28.1581 53.2077 28.4889 53.015L47.0938 42.1795V20.4965C47.0938 19.7257 47.3999 18.9865 47.945 18.4414ZM41.1966 62.0728C43.9441 63.3927 46.9519 64.082 50 64.0902C55.1467 64.0951 60.104 62.1492 63.873 58.6445C67.642 55.1397 69.9425 50.3367 70.3111 45.2032C70.6796 40.0698 69.0887 34.9874 65.859 30.9802C62.6293 26.973 58.0009 24.3389 52.9062 23.6086V43.8482C52.9053 44.3574 52.7706 44.8575 52.5155 45.2982C52.2605 45.739 51.8941 46.105 51.4531 46.3597L34.1198 56.4613C36.0312 58.8357 38.4491 60.7529 41.1966 62.0728Z" fill="white"/>
</svg>
