<svg width="268" height="92" viewBox="0 0 268 92" fill="none" xmlns="http://www.w3.org/2000/svg">
<path d="M117.369 34.9918L124.361 8.81815H131.428L123.913 34.9918H117.369ZM101.777 34.9918L94.2617 8.81815H101.329L108.321 34.9918H101.777ZM102.787 34.9918L109.405 8.81815H115.537L108.956 34.9918H102.787ZM116.734 34.9918L110.153 8.81815H116.285L123.277 34.9918H116.734ZM133.44 34.9918V8.81815H140.171V34.9918H133.44ZM145.144 34.9918V25.4197H151.874V34.9918H145.144ZM145.144 25.4197C145.144 24.6968 145.056 24.111 144.882 23.6623C144.732 23.1887 144.496 22.8273 144.172 22.578C143.872 22.3287 143.486 22.1916 143.012 22.1667C142.065 22.1168 141.355 22.3287 140.881 22.8023C140.408 23.276 140.171 24.0238 140.171 25.0458H138.339C138.339 23.0765 138.638 21.4064 139.236 20.0354C139.834 18.6644 140.644 17.6299 141.666 16.932C142.688 16.2091 143.847 15.8476 145.144 15.8476C146.664 15.8476 147.923 16.1592 148.92 16.7824C149.917 17.3807 150.653 18.303 151.126 19.5493C151.625 20.7957 151.874 22.3786 151.874 24.298V25.4197H145.144ZM165.973 34.9918L165.786 30.6918V25.831C165.786 24.9585 165.737 24.1733 165.637 23.4754C165.537 22.7774 165.288 22.229 164.889 21.8302C164.49 21.4313 163.842 21.2319 162.945 21.2319C162.321 21.2319 161.81 21.3815 161.412 21.6806C161.013 21.9797 160.676 22.3287 160.402 22.7276L154.532 20.858C155.055 19.836 155.703 18.9511 156.476 18.2033C157.274 17.4554 158.196 16.8821 159.243 16.4833C160.315 16.0595 161.499 15.8476 162.795 15.8476C164.789 15.8476 166.497 16.2091 167.918 16.932C169.339 17.6549 170.423 18.6644 171.171 19.9606C171.918 21.2568 172.292 22.7649 172.292 24.4849V34.9918H165.973ZM161 35.4405C158.832 35.4405 157.137 34.9544 155.915 33.9822C154.719 32.9851 154.12 31.5643 154.12 29.7196C154.12 27.7753 154.719 26.342 155.915 25.4197C157.137 24.4725 158.832 23.9988 161 23.9988H166.497V27.8501H163.655C162.783 27.8501 162.11 27.9997 161.636 28.2988C161.162 28.5979 160.926 29.0217 160.926 29.5701C160.926 29.944 161.088 30.2307 161.412 30.4301C161.736 30.6295 162.184 30.7292 162.758 30.7292C163.381 30.7292 163.917 30.617 164.366 30.3927C164.814 30.1434 165.163 29.8069 165.412 29.3831C165.662 28.9344 165.786 28.4234 165.786 27.8501H167.544C167.544 30.268 166.97 32.1376 165.824 33.4587C164.677 34.7799 163.069 35.4405 161 35.4405ZM183.805 35.4405C181.487 35.4405 179.767 34.8921 178.645 33.7953C177.523 32.6985 176.962 31.128 176.962 29.084V10.4634H183.693V27.2519C183.693 27.9498 183.793 28.4484 183.992 28.7475C184.191 29.0466 184.528 29.1962 185.001 29.1962C185.201 29.1962 185.45 29.1339 185.749 29.0092C186.048 28.8846 186.285 28.7599 186.46 28.6353L188.741 33.4961C188.167 33.9947 187.419 34.4434 186.497 34.8422C185.575 35.241 184.677 35.4405 183.805 35.4405ZM174.158 21.905V16.2963H187.544V21.905H174.158ZM198.417 35.4405C197.171 35.4405 196.012 35.266 194.94 34.917C193.868 34.568 192.946 34.0819 192.173 33.4587C191.425 32.8106 190.902 32.0379 190.603 31.1405L195.95 29.0466C196.224 29.7196 196.61 30.1559 197.109 30.3553C197.607 30.5298 198.044 30.617 198.417 30.617C198.816 30.617 199.14 30.5298 199.39 30.3553C199.639 30.1808 199.764 29.9315 199.764 29.6075C199.764 29.2585 199.589 28.9718 199.24 28.7475C198.891 28.4982 198.355 28.2863 197.632 28.1118L196.099 27.7379C194.429 27.3142 193.17 26.5788 192.323 25.5319C191.475 24.4849 191.051 23.2635 191.051 21.8676C191.051 19.9482 191.749 18.465 193.145 17.4181C194.566 16.3711 196.486 15.8476 198.904 15.8476C200.374 15.8476 201.608 16.0346 202.605 16.4085C203.627 16.7575 204.462 17.256 205.11 17.9041C205.759 18.5522 206.257 19.3001 206.606 20.1476L201.409 22.1293C201.234 21.6308 200.935 21.2693 200.511 21.045C200.113 20.8206 199.614 20.7084 199.016 20.7084C198.592 20.7084 198.255 20.8082 198.006 21.0076C197.782 21.207 197.67 21.4438 197.67 21.718C197.67 22.0171 197.844 22.2789 198.193 22.5032C198.567 22.7026 199.128 22.902 199.876 23.1015L201.409 23.4754C202.555 23.7496 203.553 24.1733 204.4 24.7467C205.248 25.2951 205.908 25.9806 206.382 26.8032C206.855 27.6258 207.092 28.573 207.092 29.6449C207.092 30.8663 206.731 31.9132 206.008 32.7857C205.285 33.6332 204.275 34.2938 202.979 34.7674C201.683 35.2161 200.162 35.4405 198.417 35.4405ZM117.369 66.9918L124.361 40.8182H131.428L123.913 66.9918H117.369ZM101.777 66.9918L94.2617 40.8182H101.329L108.321 66.9918H101.777ZM102.787 66.9918L109.405 40.8182H115.537L108.956 66.9918H102.787ZM116.734 66.9918L110.153 40.8182H116.285L123.277 66.9918H116.734ZM137.795 57.4571C137.795 55.438 138.194 53.7429 138.992 52.3719C139.814 51.0009 140.849 49.9665 142.095 49.2685C143.342 48.5705 144.638 48.2215 145.984 48.2215V54.8023C144.812 54.8023 143.715 54.9145 142.693 55.1389C141.696 55.3383 140.886 55.6499 140.263 56.0736C139.665 56.4974 139.366 57.0084 139.366 57.6067L137.795 57.4571ZM132.635 66.9918V48.2963H139.366V66.9918H132.635ZM159.145 66.9918L158.958 62.6918V57.831C158.958 56.9585 158.908 56.1733 158.809 55.4754C158.709 54.7774 158.46 54.229 158.061 53.8302C157.662 53.4313 157.014 53.2319 156.116 53.2319C155.493 53.2319 154.982 53.3815 154.583 53.6806C154.185 53.9797 153.848 54.3287 153.574 54.7276L147.704 52.858C148.227 51.836 148.875 50.9511 149.648 50.2033C150.446 49.4554 151.368 48.8821 152.415 48.4833C153.487 48.0595 154.671 47.8476 155.967 47.8476C157.961 47.8476 159.669 48.2091 161.089 48.932C162.51 49.6549 163.595 50.6644 164.342 51.9606C165.09 53.2568 165.464 54.7649 165.464 56.4849V66.9918H159.145ZM154.172 67.4405C152.003 67.4405 150.308 66.9544 149.087 65.9822C147.89 64.9851 147.292 63.5643 147.292 61.7196C147.292 59.7753 147.89 58.342 149.087 57.4197C150.308 56.4725 152.003 55.9988 154.172 55.9988H159.669V59.8501H156.827C155.954 59.8501 155.281 59.9997 154.808 60.2988C154.334 60.5979 154.097 61.0217 154.097 61.5701C154.097 61.944 154.259 62.2307 154.583 62.4301C154.907 62.6295 155.356 62.7292 155.929 62.7292C156.553 62.7292 157.089 62.617 157.537 62.3927C157.986 62.1434 158.335 61.8069 158.584 61.3831C158.834 60.9344 158.958 60.4234 158.958 59.8501H160.716C160.716 62.268 160.142 64.1376 158.996 65.4587C157.849 66.7799 156.241 67.4405 154.172 67.4405ZM168.826 74.4699V48.2963H175.182L175.556 51.7363V74.4699H168.826ZM180.566 67.4405C179.021 67.4405 177.737 67.0541 176.715 66.2813C175.718 65.5086 174.97 64.3869 174.472 62.9162C173.998 61.4454 173.761 59.6881 173.761 57.644C173.761 55.5751 173.998 53.8177 174.472 52.3719C174.97 50.9012 175.718 49.7795 176.715 49.0068C177.737 48.234 179.021 47.8476 180.566 47.8476C182.336 47.8476 183.844 48.234 185.091 49.0068C186.362 49.7795 187.334 50.9012 188.007 52.3719C188.68 53.8177 189.017 55.5751 189.017 57.644C189.017 59.6881 188.68 61.4454 188.007 62.9162C187.334 64.3869 186.362 65.5086 185.091 66.2813C183.844 67.0541 182.336 67.4405 180.566 67.4405ZM178.772 61.2336C179.395 61.2336 179.943 61.084 180.417 60.7849C180.89 60.4608 181.264 60.0371 181.538 59.5136C181.838 58.9652 181.987 58.342 181.987 57.644C181.987 56.9461 181.85 56.3354 181.576 55.8119C181.302 55.2635 180.928 54.8397 180.454 54.5406C179.98 54.2415 179.432 54.0919 178.809 54.0919C178.186 54.0919 177.625 54.2415 177.126 54.5406C176.628 54.8397 176.241 55.2635 175.967 55.8119C175.693 56.3354 175.556 56.9461 175.556 57.644C175.556 58.342 175.693 58.9652 175.967 59.5136C176.241 60.0371 176.615 60.4608 177.089 60.7849C177.587 61.084 178.148 61.2336 178.772 61.2336ZM191.647 74.4699V48.2963H198.004L198.377 51.7363V74.4699H191.647ZM203.388 67.4405C201.842 67.4405 200.559 67.0541 199.537 66.2813C198.54 65.5086 197.792 64.3869 197.293 62.9162C196.82 61.4454 196.583 59.6881 196.583 57.644C196.583 55.5751 196.82 53.8177 197.293 52.3719C197.792 50.9012 198.54 49.7795 199.537 49.0068C200.559 48.234 201.842 47.8476 203.388 47.8476C205.158 47.8476 206.666 48.234 207.912 49.0068C209.183 49.7795 210.156 50.9012 210.829 52.3719C211.502 53.8177 211.838 55.5751 211.838 57.644C211.838 59.6881 211.502 61.4454 210.829 62.9162C210.156 64.3869 209.183 65.5086 207.912 66.2813C206.666 67.0541 205.158 67.4405 203.388 67.4405ZM201.593 61.2336C202.216 61.2336 202.765 61.084 203.238 60.7849C203.712 60.4608 204.086 60.0371 204.36 59.5136C204.659 58.9652 204.809 58.342 204.809 57.644C204.809 56.9461 204.672 56.3354 204.397 55.8119C204.123 55.2635 203.749 54.8397 203.276 54.5406C202.802 54.2415 202.254 54.0919 201.63 54.0919C201.007 54.0919 200.446 54.2415 199.948 54.5406C199.449 54.8397 199.063 55.2635 198.789 55.8119C198.515 56.3354 198.377 56.9461 198.377 57.644C198.377 58.342 198.515 58.9652 198.789 59.5136C199.063 60.0371 199.437 60.4608 199.911 60.7849C200.409 61.084 200.97 61.2336 201.593 61.2336ZM223.742 67.4405C221.723 67.4405 219.928 67.0292 218.357 66.2066C216.787 65.384 215.553 64.2373 214.656 62.7666C213.783 61.2959 213.347 59.5884 213.347 57.644C213.347 55.6997 213.783 53.9922 214.656 52.5215C215.528 51.0508 216.737 49.9041 218.283 49.0815C219.828 48.2589 221.61 47.8476 223.629 47.8476C225.549 47.8476 227.231 48.2714 228.677 49.1189C230.148 49.9415 231.295 51.2004 232.117 52.8954C232.965 54.5905 233.388 56.7342 233.388 59.3266H219.404L220.227 58.3545C220.227 59.1521 220.352 59.8501 220.601 60.4484C220.85 61.0466 221.224 61.5078 221.723 61.8318C222.221 62.1559 222.832 62.3179 223.555 62.3179C224.377 62.3179 225.088 62.1309 225.686 61.757C226.309 61.3582 226.696 60.8721 226.845 60.2988L232.753 62.1309C232.304 63.4272 231.581 64.4741 230.584 65.2718C229.612 66.0445 228.515 66.6054 227.294 66.9544C226.097 67.2784 224.913 67.4405 223.742 67.4405ZM220.264 56.298L219.554 55.2136H227.294L226.621 56.298C226.621 55.3258 226.459 54.5655 226.135 54.0171C225.811 53.4687 225.399 53.0824 224.901 52.858C224.427 52.6087 223.941 52.4841 223.443 52.4841C222.919 52.4841 222.408 52.6087 221.909 52.858C221.436 53.0824 221.037 53.4687 220.713 54.0171C220.414 54.5655 220.264 55.3258 220.264 56.298ZM248.285 66.9918L247.949 63.5144V40.8182H254.679V66.9918H248.285ZM242.976 67.4405C241.206 67.4405 239.685 67.0541 238.414 66.2813C237.168 65.5086 236.208 64.3869 235.535 62.9162C234.862 61.4454 234.525 59.6881 234.525 57.644C234.525 55.5751 234.862 53.8177 235.535 52.3719C236.208 50.9012 237.168 49.7795 238.414 49.0068C239.685 48.234 241.206 47.8476 242.976 47.8476C244.521 47.8476 245.793 48.234 246.79 49.0068C247.812 49.7795 248.559 50.9012 249.033 52.3719C249.532 53.8177 249.781 55.5751 249.781 57.644C249.781 59.6881 249.532 61.4454 249.033 62.9162C248.559 64.3869 247.812 65.5086 246.79 66.2813C245.793 67.0541 244.521 67.4405 242.976 67.4405ZM244.77 61.2336C245.394 61.2336 245.942 61.084 246.416 60.7849C246.914 60.4608 247.301 60.0371 247.575 59.5136C247.849 58.9652 247.986 58.342 247.986 57.644C247.986 56.9461 247.849 56.3354 247.575 55.8119C247.301 55.2635 246.914 54.8397 246.416 54.5406C245.942 54.2415 245.381 54.0919 244.733 54.0919C244.135 54.0919 243.599 54.2415 243.125 54.5406C242.652 54.8397 242.278 55.2635 242.004 55.8119C241.729 56.3354 241.58 56.9461 241.555 57.644C241.58 58.342 241.729 58.9652 242.004 59.5136C242.278 60.0371 242.652 60.4608 243.125 60.7849C243.624 61.084 244.172 61.2336 244.77 61.2336ZM261.69 67.5526C260.643 67.5526 259.734 67.1787 258.961 66.4309C258.213 65.6582 257.839 64.7483 257.839 63.7014C257.839 62.6544 258.213 61.757 258.961 61.0092C259.734 60.2365 260.643 59.8501 261.69 59.8501C262.737 59.8501 263.635 60.2365 264.383 61.0092C265.155 61.757 265.542 62.6544 265.542 63.7014C265.542 64.7483 265.155 65.6582 264.383 66.4309C263.635 67.1787 262.737 67.5526 261.69 67.5526Z" fill="white"/>
<path fill-rule="evenodd" clip-rule="evenodd" d="M0 8.00001C0 3.58173 3.58172 0 8 0H76.5229C80.9411 0 84.5228 3.58172 84.5228 8V69.0125C84.5228 73.4308 80.9411 77.0125 76.5228 77.0125H66.1826L66.2217 87.6528C66.2344 91.1307 62.4482 93.2522 59.9144 91.1868L42.5262 77.0125H7.99999C3.58171 77.0125 0 73.4308 0 69.0125V8.00001ZM34.8165 35.9288C34.5533 36.3756 34.1754 36.7437 33.722 36.9952L20.2588 44.4643C19.8365 44.6981 19.3625 44.823 18.8798 44.8278C18.3971 44.8325 17.9208 44.717 17.4939 44.4915C17.067 44.2661 16.703 43.9378 16.4348 43.5365C16.1666 43.1351 16.0026 42.6732 15.9576 42.1926C15.8825 41.3836 15.8438 40.5626 15.8438 39.7465C15.8519 34.7404 17.2929 29.8412 19.9967 25.628C22.7005 21.4149 26.5539 18.0638 31.1016 15.9709C31.5443 15.768 32.031 15.6796 32.5169 15.7138C33.0028 15.7481 33.4723 15.9039 33.8822 16.167C34.2921 16.4301 34.6293 16.7919 34.8629 17.2194C35.0964 17.6468 35.2188 18.1261 35.2188 18.6132V34.4547C35.2186 34.9731 35.0797 35.4821 34.8165 35.9288ZM29.4062 32.7376V23.7766C25.2949 27.0292 22.5906 31.7373 21.8524 36.9274L29.4062 32.7376ZM39.945 14.4414C40.49 13.8964 41.2292 13.5902 42 13.5902C46.5826 13.5908 51.0845 14.7954 55.0551 17.0832C59.0257 19.3711 62.3255 22.662 64.6242 26.6263C66.9228 30.5907 68.1396 35.0894 68.1526 39.6719C68.1657 44.2545 66.9746 48.76 64.6986 52.7374C62.4226 56.7148 59.1415 60.0244 55.1841 62.3349C51.2266 64.6453 46.7315 65.8755 42.1491 65.9023C37.5666 65.929 33.0575 64.7513 29.0733 62.4872C25.0892 60.2231 21.7698 56.9519 19.4475 53.0014C19.2532 52.6715 19.126 52.3065 19.0731 51.9273C19.0203 51.5481 19.0429 51.1622 19.1397 50.7917C19.2365 50.4213 19.4055 50.0737 19.637 49.7687C19.8686 49.4638 20.1581 49.2077 20.4889 49.015L39.0938 38.1795V16.4965C39.0938 15.7257 39.3999 14.9865 39.945 14.4414ZM33.1966 58.0728C35.9441 59.3927 38.9519 60.082 42 60.0902C47.1467 60.0951 52.104 58.1492 55.873 54.6445C59.642 51.1397 61.9425 46.3367 62.3111 41.2032C62.6796 36.0698 61.0887 30.9874 57.859 26.9802C54.6293 22.973 50.0009 20.3389 44.9062 19.6086V39.8482C44.9053 40.3574 44.7706 40.8575 44.5155 41.2982C44.2605 41.739 43.8941 42.105 43.4531 42.3597L26.1198 52.4613C28.0312 54.8357 30.4491 56.7529 33.1966 58.0728Z" fill="white"/>
</svg>
