<svg width="43" height="42" viewBox="0 0 43 42" fill="none" xmlns="http://www.w3.org/2000/svg">
<g clip-path="url(#clip0_3969_3892)">
<path d="M6.39174 13.7163C5.67101 13.7163 5.05949 13.9676 4.55682 14.4703C4.05415 14.973 3.80273 15.5762 3.80273 16.2802V27.0896C3.80273 27.8112 4.05407 28.4222 4.55682 28.9249C5.05949 29.4276 5.67101 29.679 6.39174 29.679C7.11194 29.679 7.71974 29.4277 8.21463 28.9249C8.70853 28.4223 8.95616 27.8112 8.95616 27.0896V16.2802C8.95616 15.5761 8.70482 14.973 8.20207 14.4703C7.69932 13.9676 7.09575 13.7163 6.39174 13.7163Z" fill="#09090B"/>
<path d="M27.2061 4.01281L28.991 0.720249C29.1081 0.502267 29.0665 0.335113 28.8656 0.217576C28.6475 0.116224 28.48 0.16758 28.3629 0.368015L26.5531 3.6869C24.9606 2.98281 23.2763 2.63012 21.5001 2.63012C19.7236 2.63012 18.0391 2.98288 16.4472 3.6869L14.6373 0.368015C14.5197 0.16758 14.3522 0.116678 14.1347 0.217576C13.9333 0.335643 13.8916 0.502267 14.0093 0.720249L15.7942 4.01281C13.9843 4.93579 12.5428 6.22122 11.4703 7.87189C10.3978 9.52346 9.86133 11.3283 9.86133 13.2895H33.1136C33.1136 11.3287 32.5771 9.52384 31.5046 7.87189C30.4321 6.22122 28.9989 4.93579 27.2061 4.01281ZM16.887 8.8019C16.6939 8.99538 16.4634 9.09166 16.1954 9.09166C15.9269 9.09166 15.7011 8.99538 15.5168 8.8019C15.3326 8.60933 15.2404 8.3797 15.2404 8.11082C15.2404 7.84284 15.3326 7.61276 15.5168 7.41974C15.7011 7.22717 15.9274 7.13089 16.1954 7.13089C16.4634 7.13089 16.6939 7.22717 16.887 7.41974C17.0795 7.61321 17.1763 7.84284 17.1763 8.11082C17.1757 8.37925 17.0791 8.60933 16.887 8.8019ZM27.4824 8.8019C27.2978 8.99538 27.0714 9.09166 26.8039 9.09166C26.5353 9.09166 26.3049 8.99538 26.1122 8.8019C25.9193 8.60933 25.823 8.3797 25.823 8.11082C25.823 7.84284 25.9193 7.61276 26.1122 7.41974C26.3049 7.22717 26.5353 7.13089 26.8039 7.13089C27.0719 7.13089 27.2977 7.22717 27.4824 7.41974C27.6668 7.61321 27.7588 7.84284 27.7588 8.11082C27.7588 8.37925 27.6668 8.60933 27.4824 8.8019Z" fill="#09090B"/>
<path d="M9.96094 30.9358C9.96094 31.7075 10.2289 32.3606 10.7649 32.8967C11.3014 33.4327 11.9546 33.7007 12.7257 33.7007H14.586L14.6115 39.4077C14.6115 40.1283 14.8629 40.7403 15.3655 41.243C15.8682 41.7458 16.4719 41.9971 17.1754 41.9971C17.8957 41.9971 18.5076 41.7458 19.0103 41.243C19.5131 40.7403 19.7644 40.1284 19.7644 39.4077V33.7012H23.2334V39.4077C23.2334 40.1283 23.4846 40.7403 23.9874 41.243C24.4901 41.7458 25.1015 41.9971 25.8223 41.9971C26.5426 41.9971 27.1545 41.7458 27.6572 41.243C28.16 40.7403 28.4112 40.1284 28.4112 39.4077V33.7012H30.2967C31.0507 33.7012 31.6955 33.4332 32.2325 32.8971C32.7684 32.3611 33.0366 31.7079 33.0366 30.9363V14.1936H9.96094V30.9358Z" fill="#09090B"/>
<path d="M36.6079 13.7163C35.9038 13.7163 35.3007 13.9639 34.798 14.4578C34.2953 14.9526 34.0439 15.5605 34.0439 16.2802V27.0896C34.0439 27.8112 34.2952 28.4222 34.798 28.9249C35.3007 29.4277 35.9043 29.679 36.6079 29.679C37.3282 29.679 37.9401 29.4277 38.4428 28.9249C38.9456 28.4222 39.1968 27.8112 39.1968 27.0896V16.2802C39.1968 15.5604 38.9456 14.9526 38.4428 14.4578C37.9401 13.9639 37.3282 13.7163 36.6079 13.7163Z" fill="#09090B"/>
</g>
<defs>
<clipPath id="clip0_3969_3892">
<rect width="41.8301" height="41.8301" fill="white" transform="translate(0.584961 0.166992)"/>
</clipPath>
</defs>
</svg>
