<svg width="32" height="40" viewBox="0 0 32 40" fill="none" xmlns="http://www.w3.org/2000/svg">
<g clip-path="url(#clip0_3969_3863)">
<path d="M30.685 13.94C30.4615 14.1138 26.5157 16.3413 26.5157 21.2943C26.5157 27.0233 31.5366 29.0501 31.6869 29.1003C31.6638 29.2238 30.8893 31.876 29.0396 34.5783C27.3904 36.9564 25.6679 39.3306 23.0476 39.3306C20.4273 39.3306 19.753 37.8057 16.728 37.8057C13.7802 37.8057 12.7321 39.3808 10.3352 39.3808C7.93843 39.3808 6.26605 37.1803 4.34321 34.478C2.11594 31.3046 0.316406 26.3747 0.316406 21.6958C0.316406 14.191 5.1871 10.2108 9.98073 10.2108C12.5278 10.2108 14.6511 11.8862 16.2502 11.8862C17.7723 11.8862 20.146 10.1104 23.0438 10.1104C24.142 10.1104 28.0879 10.2108 30.685 13.94ZM21.6681 6.9332C22.8665 5.50867 23.7142 3.53209 23.7142 1.5555C23.7142 1.28141 23.6911 1.00345 23.641 0.779541C21.6912 0.852891 19.3715 2.08053 17.9727 3.70581C16.8745 4.95662 15.8495 6.9332 15.8495 8.9368C15.8495 9.23792 15.8996 9.53904 15.9227 9.63556C16.046 9.65872 16.2464 9.68574 16.4467 9.68574C18.1962 9.68574 20.3965 8.51215 21.6681 6.9332Z" fill="#09090B"/>
</g>
<defs>
<clipPath id="clip0_3969_3863">
<rect width="31.3667" height="38.6051" fill="white" transform="translate(0.316406 0.779541)"/>
</clipPath>
</defs>
</svg>
