<svg width="25" height="24" viewBox="0 0 25 24" fill="none" xmlns="http://www.w3.org/2000/svg">
<g id="command">
<path id="Vector" d="M15.832 6V18C15.832 18.5933 16.008 19.1734 16.3376 19.6667C16.6673 20.1601 17.1358 20.5446 17.684 20.7716C18.2322 20.9987 18.8354 21.0581 19.4173 20.9424C19.9992 20.8266 20.5338 20.5409 20.9534 20.1213C21.3729 19.7018 21.6586 19.1672 21.7744 18.5853C21.8901 18.0033 21.8307 17.4001 21.6037 16.852C21.3766 16.3038 20.9921 15.8352 20.4987 15.5056C20.0054 15.1759 19.4254 15 18.832 15H6.83203C6.23869 15 5.65867 15.1759 5.16532 15.5056C4.67197 15.8352 4.28746 16.3038 4.06039 16.852C3.83333 17.4001 3.77392 18.0033 3.88968 18.5853C4.00543 19.1672 4.29115 19.7018 4.71071 20.1213C5.13027 20.5409 5.66482 20.8266 6.24676 20.9424C6.82871 21.0581 7.43191 20.9987 7.98008 20.7716C8.52826 20.5446 8.9968 20.1601 9.32644 19.6667C9.65609 19.1734 9.83203 18.5933 9.83203 18V6C9.83203 5.40666 9.65609 4.82664 9.32644 4.33329C8.9968 3.83994 8.52826 3.45543 7.98008 3.22836C7.43191 3.0013 6.82871 2.94189 6.24676 3.05765C5.66482 3.1734 5.13027 3.45912 4.71071 3.87868C4.29115 4.29824 4.00543 4.83279 3.88968 5.41473C3.77392 5.99667 3.83333 6.59987 4.06039 7.14805C4.28746 7.69623 4.67197 8.16477 5.16532 8.49441C5.65867 8.82405 6.23869 9 6.83203 9H18.832C19.4254 9 20.0054 8.82405 20.4987 8.49441C20.9921 8.16477 21.3766 7.69623 21.6037 7.14805C21.8307 6.59987 21.8901 5.99667 21.7744 5.41473C21.6586 4.83279 21.3729 4.29824 20.9534 3.87868C20.5338 3.45912 19.9992 3.1734 19.4173 3.05765C18.8354 2.94189 18.2322 3.0013 17.684 3.22836C17.1358 3.45543 16.6673 3.83994 16.3376 4.33329C16.008 4.82664 15.832 5.40666 15.832 6Z" stroke="#8AFFA7" stroke-width="2" stroke-linecap="round" stroke-linejoin="round"/>
</g>
</svg>
